# xmcd CD database file
#
# Track frame offsets:
#	187
#	15007
#	36987
#	54037
#	68355
#	90980
#	107450
#	123855
#	134665
#	150645
#
# Disc length: 2193 seconds
#
# Revision: 2
# Processed by: cddbd v1.4PL0 Copyright (c) Steve Scherf et al.
# Submitted via: CDex 1.51
#
DISCID=66088f0a
DTITLE=Flying Burrito Bros - Flying Burrito Bros MFSL
DYEAR=1970
DGENRE=Country
TTITLE0=White Line Fever
TTITLE1=Colorado
TTITLE2=Hand to Mouth
TTITLE3=Tried So Hard
TTITLE4=Just Can't Be
TTITLE5=To Ramona
TTITLE6=Four Days of Rain
TTITLE7=Can't You Hear Me Calling
TTITLE8=All Alone
TTITLE9=Why Are You Crying
EXTD=Mobile Fidelity Soundlab\nOriginal Master Recording YEAR: 1970
EXTT0=
EXTT1=
EXTT2=
EXTT3=
EXTT4=
EXTT5=
EXTT6=
EXTT7=
EXTT8=
EXTT9=
PLAYORDER=
